<svg width="720" height="226" viewBox="0 0 720 226" fill="none" xmlns="http://www.w3.org/2000/svg">
<path d="M335.276 98.4253C327.007 96.614 320.784 94.8026 316.636 92.7684C316.72 92.5733 316.832 92.4061 316.916 92.1832C319.018 87.1114 320.083 81.5102 320.083 75.3516C320.083 70.9487 319.327 66.8801 317.841 63.146C316.355 59.4119 314.225 56.1515 311.45 53.3926C308.675 50.6338 305.339 48.4881 301.415 46.9554C297.491 45.4228 293.09 44.6425 288.212 44.6425H254.856C251.1 35.1121 246.951 23.3244 242.27 8.88944C242.018 8.08131 240.784 8.41571 240.98 9.22384C250.399 51.4141 247.764 64.1492 222.732 55.5662C219.06 54.3122 216.594 59.3283 219.873 61.4183C225.311 64.8737 212.557 67.0195 215.865 68.0506C218.724 68.9423 221.443 70.3078 223.433 72.5092C243.615 94.9141 231.31 107.203 179.621 134.346C178.892 134.736 179.369 135.822 180.154 135.572C211.352 125.4 224.975 129.413 225.704 143.124L222.088 160.178H243.84L243.952 159.704C244.064 159.676 244.148 159.621 244.176 159.509C253.847 131.893 256.285 108.903 259.116 145.882C259.173 146.663 260.294 146.746 260.462 145.994C265.171 123.366 259.929 98.5368 308.226 157.029C308.759 157.67 309.768 156.945 309.32 156.249C282.999 115.703 284.064 109.795 325.774 128.716C327.596 129.552 328.969 126.961 327.287 125.902C312.123 116.511 305.143 110.547 305.844 107.008C306.573 106.423 307.329 105.81 308.03 105.169C308.311 104.89 308.563 104.612 308.843 104.333C313.104 102.745 321.821 102.382 334.828 102.856C337.491 102.995 337.995 99.0105 335.276 98.4253ZM279.243 65.4311C280.476 64.4279 281.345 62.9509 282.158 60.8888C285.437 65.7097 288.381 65.0409 297.154 60.8052C295.108 65.2917 294.435 68.6079 296.313 71.9798C296.369 72.1191 296.482 72.2306 296.538 72.3699C297.379 73.7354 298.668 75.1008 300.406 76.5778C283.98 84.0461 281.99 83.015 285.465 74.2648C278.626 80.5906 272.319 79.2809 264.414 65.4311H279.243Z" fill="white"/>
<path d="M496.651 42.5525L454.072 115.814C446.868 89.2294 451.465 78.0548 484.009 36.4219C455.334 65.7655 456.371 62.5051 486.364 13.1252C454.633 58.2415 453.596 57.0711 478.992 4.43081C447.934 53.337 440.225 45.395 439.833 0C432.208 52.2502 431.395 66.6015 420.183 43.6393C423.21 84.3248 417.688 145.771 397.198 179.323C401.01 173.666 404.346 168.928 407.233 164.999C409.475 161.934 413.063 160.15 416.903 160.15H426.967C427.359 163.634 427.639 167.925 427.948 172.885C429.013 168.315 429.966 164.107 430.863 160.15H453.68L481.795 110.185L470.583 160.15H492.895L518.123 42.5804H496.651V42.5525ZM433.778 147.081C440.786 116.037 442.636 110.631 453.231 117.291L435.908 147.081H433.778Z" fill="white"/>
<path d="M583.349 178.014C583.321 178.153 583.265 178.292 583.237 178.432C583.237 179.965 583.293 179.519 583.349 178.014Z" fill="white"/>
<path d="M691.745 118.741L690.175 54.6756C697.996 48.7121 707.778 41.6897 720 33.3297C708.395 40.1013 698.5 45.6189 690.035 49.9661L689.895 44.6157H653.847C657.295 34.7787 664.443 20.7896 674.506 2.7041C618.332 82.5981 611.492 152.516 592.319 151.15C590.806 149.841 590.722 145.465 591.675 138.75L599.047 104.334C605.914 76.5231 615.837 39.9898 623.125 4.59904C620.434 12.6247 617.968 19.8979 615.669 26.4466C611.829 37.3425 601.513 44.6436 589.909 44.6436L584.471 70.0302C577.799 68.9155 569.726 63.1471 559.019 52.6692C575.809 73.4021 571.605 85.0782 546.797 91.8777H546.573L556.692 44.6436H534.772L510.189 160.235H531.941L542.06 112.694H567.512C576.65 124.454 565.382 161.127 532.502 181.609C567.232 167.759 575.417 145.298 572.053 174.921C583.041 145.493 583.518 171.577 583.349 178.042C593.609 140.449 599.047 160.374 621.387 226C617.014 200.391 614.548 180.605 615.277 166.366C615.445 162.938 618.248 160.235 621.668 160.235L630.637 139.363C637 137.719 645.578 138.582 656.762 141.899C653.034 139.446 649.895 137.328 647.372 135.461H670.665L671.002 160.235H692.754L691.801 121.082C699.257 120.831 707.498 120.553 716.72 120.19C707.274 119.744 699.005 119.271 691.745 118.741ZM676.44 96.838C676.244 103.108 678.907 109.935 684.092 112.583C680.476 114.143 675.683 115.509 670.357 116.735C641.233 112.917 646.811 107.093 676.44 96.838ZM686.671 61.1964C675.795 77.3034 676.019 80.5917 685.634 79.1983C674.646 84.6045 674.169 85.552 683.588 84.8553C679.271 86.3601 677 90.7352 676.524 95.6397C638.066 103.61 671.955 86.1093 671.955 86.1093C671.955 86.1093 645.802 91.6827 678.066 64.3732C677.533 69.1663 679.495 67.4107 686.671 61.1964ZM680.925 48.7121C680.504 51.0808 680.084 53.1708 679.719 55.0379C663.237 62.6455 654.576 63.8159 652.221 58.7442C658.108 60.862 664.695 55.6788 680.925 48.7121Z" fill="white"/>
<path d="M116.692 65.4311H133.118V46.1473C142.397 40.8247 155.151 35.0563 170.427 28.424C116.468 49.5192 96.4821 45.4228 108.928 30.2354C85.6902 47.039 75.5431 50.6338 30.9741 27.8667C62.2284 49.6585 54.7442 55.6777 0 66.6294C60.8829 60.8052 62.0322 63.0067 6.44709 78.8071C50.5115 70.0291 67.5263 67.2146 78.6265 73.4288L60.0701 160.262H81.9902L101.387 69.5554C108.003 70.5586 118.206 73.9026 133.623 79.3366C123.336 74.432 117.954 69.9176 116.692 65.4311Z" fill="white"/>
<path d="M239.131 44.6422H216.762C219.033 39.877 221.64 34.4987 224.639 28.4517C195.739 71.3943 184.162 82.4017 174.408 63.8982C177.463 81.3428 178.949 90.8732 177.996 99.7906H176.678L164.064 44.6422H140.827L159.103 119.604H168.353C163.588 125.066 155.767 135.237 144.499 150.787C172.894 117.597 174.099 118.322 152.488 159.899C175.249 120.05 150.946 166.782 132.081 211.258C152.179 167.507 185.788 138.442 171.044 182.806C175.977 168.761 179.425 158.896 182.116 151.483L239.131 46.6487V44.6422Z" fill="white"/>
<path d="M417.043 113.863C395.936 102.716 396.048 97.8674 415.277 87.5289C392.348 93.4366 391.003 92.517 407.092 80.8687C387.275 90.0369 384.892 88.4485 391.059 70.14C379.959 81.0638 371.802 80.1999 358.179 63.6192H416.231V42.8027H326.924V63.6192H335.39L316.048 160.205H359.608C366.252 160.205 372.278 159.202 377.716 157.224C383.154 155.245 387.779 152.431 391.675 148.808C395.544 145.185 398.543 140.838 400.645 135.766C402.748 130.694 403.813 125.093 403.813 118.935C403.813 116.733 403.617 114.615 403.252 112.581C406.728 112.553 411.269 113.027 417.043 113.863ZM386.714 138.469C383.575 135.432 380.884 133.119 378.417 131.363C377.66 132.478 376.791 133.509 375.698 134.456C371.942 137.745 367.233 139.417 361.57 139.417H341.304L347.667 109.544C348.368 109.376 349.013 109.209 349.657 109.042H353.806C352.292 106.339 350.358 103.385 348.088 99.9853C364.598 109.571 372.194 110.101 383.294 99.5394C377.156 111.968 378.473 114.504 392.32 115.005C378.221 117.681 377.996 118.517 391.928 121.638C378.501 121.192 380.8 122.78 397.029 135.683C379.454 125.818 377.604 125.874 386.714 138.469Z" fill="white"/>
</svg>
